<svg width="831" height="831" viewBox="0 0 831 831" fill="none" xmlns="http://www.w3.org/2000/svg">
<path d="M407.225 0.0805148C636.387 -4.38717 825.846 177.634 830.553 406.791C835.266 635.948 653.443 825.593 424.292 830.544C194.798 835.501 4.80522 653.349 0.0894217 423.853C-4.62581 194.356 177.726 4.55443 407.225 0.0805148ZM294.22 65.001C312.064 115.884 329.536 166.898 346.632 218.038C352.743 235.867 358.565 254.533 365.176 272.124L365.945 272.01C368.136 268.341 371.661 255.34 373.327 250.209C380.302 229.369 386.542 208.29 392.035 187.012C394.361 177.983 399.18 155.086 401.901 147.93C413.105 150.202 456.303 147.063 461.962 149.754C463.475 153.221 462.823 160.408 462.874 164.256C463.169 188.887 456.213 213.15 448.424 236.298C438.375 266.171 425.329 295.045 411.541 323.36C406.2 334.331 400.479 347.751 393.955 357.863C391.165 352.294 389.056 345.302 387.118 339.326C380.112 317.72 371.901 296.451 365.55 274.64C361.464 290.602 346.427 325.841 332.591 335.709C324.587 327.723 313.486 309.524 307.273 299.415C280.531 255.898 248.842 193.771 245.744 142.06C231.528 142.842 217.17 142.254 202.808 143.264C193.578 143.914 183.147 143.182 173.694 143.496C192.365 206.007 233.706 326.285 274.557 375.197C278.767 380.238 283.456 385.14 288.778 389.016C291.675 391.126 294.82 392.85 297.52 395.217C280.668 428.861 235.484 439.975 201.198 437.935C198.579 437.782 182.788 436.259 182.027 436.599C181.164 441.193 181.753 446.659 181.594 451.372C181.228 462.203 182.176 475.01 181.684 485.592C219.622 485.059 259.501 484.363 295.419 469.227C300.61 467.04 306.447 463.092 311.199 459.914C309.268 518.05 312.778 576.373 312.308 634.492C312.179 650.421 314.323 667.975 313.06 683.695C325.959 682.885 350.603 683.468 364.159 683.598C362.355 670.536 364.012 453.944 365.698 450.624L366.646 450.035C369.723 454.289 372.59 457.727 375.947 461.755C379.813 466.394 383.16 471.985 386.624 476.965C411.298 514.062 460.41 600.436 466.131 643.023C470.68 642.711 486.297 642.116 490.568 642.756C485.85 630.595 481.618 616.722 477.353 604.282L448.424 519.574L417.801 429.336C413.45 416.942 409.304 404.48 405.356 391.951C404.183 388.295 400.67 381.452 401.707 378.073C404.648 381.028 412.255 397.001 415.167 401.901C429.198 425.468 445.076 447.514 460.903 469.878C469.247 481.808 479.505 494.327 486.569 507.01C488.059 502.178 496.312 488.028 499.099 483.235C521.135 445.362 566.525 377.327 600.445 350.312C605.934 351.036 613.219 349.862 618.883 349.504C630.383 348.778 645.632 349.959 656.751 348.448C656.678 362.584 657.369 375.378 657.533 389.273L658.87 507.395C659.601 567.145 659.255 628.986 659.165 688.889C640.709 688.221 612.652 687.75 594.18 688.64C593.67 676.603 592.843 664.548 592.384 652.545C591.982 641.963 592.401 630.725 592.316 620.087L591.461 525.017C591.2 507.604 589.28 490.186 590.022 472.659C590.311 465.902 589.603 458.594 590.719 451.893C574.779 467.227 562.985 494.74 553.485 514.544C538.463 545.852 525.468 578.367 511.686 610.236C507.489 620.041 503.087 632.158 498.063 641.578C497.173 643.255 493.344 643.816 491.362 644.207C500.884 669.986 509.562 697.205 518.563 723.29C522.579 734.914 530.396 756.338 533.098 767.65C545.731 761.759 559.246 757.301 571.89 751.364C657.68 711.083 728.879 635.183 761.298 545.954C796.288 452.284 792.26 348.497 750.116 257.82C707.858 167.881 631.431 98.5428 537.817 65.2083C521.826 59.4706 505.631 55.7886 489.141 51.982C458.416 44.891 428.864 44.6157 397.574 45.0247C369.436 46.651 343.265 50.4055 316.114 58.1026C309.951 59.8496 299.914 62.5533 294.22 65.001Z" fill="#234080"/>
</svg>
